<svg id="card" xmlns="http://www.w3.org/2000/svg" viewBox="0 0 100 128"><defs><style>.cls-1{fill:#ea9a9a;}</style></defs><title>card_back</title><path class="cls-1" d="M85.09,9A5.94,5.94,0,0,1,91,14.91v98.18A5.94,5.94,0,0,1,85.09,119H14.91A5.94,5.94,0,0,1,9,113.09V14.91A5.94,5.94,0,0,1,14.91,9H85.09m0-3H14.91A8.93,8.93,0,0,0,6,14.91v98.18A8.93,8.93,0,0,0,14.91,122H85.09A8.93,8.93,0,0,0,94,113.09V14.91A8.93,8.93,0,0,0,85.09,6Z"/><path class="cls-1" d="M32.71,28.05,36.94,32l-4.23,3.92L28.48,32l4.23-3.92m0-4.09-8.65,8,8.65,8,8.64-8-8.64-8Z"/><path class="cls-1" d="M32.71,44.06,36.94,48,32.71,51.9,28.48,48l4.23-3.92m0-4.08-8.65,8,8.65,8,8.64-8-8.64-8Z"/><path class="cls-1" d="M32.71,60.08,36.94,64l-4.23,3.92L28.48,64l4.23-3.92m0-4.09-8.65,8,8.65,8,8.64-8-8.64-8Z"/><path class="cls-1" d="M32.71,76.1,36.94,80l-4.23,3.92L28.48,80l4.23-3.92m0-4.09-8.65,8,8.65,8,8.64-8-8.64-8Z"/><path class="cls-1" d="M32.71,92.11,36.94,96,32.71,100,28.48,96l4.23-3.92m0-4.09-8.65,8,8.65,8,8.64-8-8.64-8Z"/><path class="cls-1" d="M50,28.05,54.23,32,50,35.89,45.77,32,50,28.05M50,24l-8.65,8L50,40l8.65-8L50,24Z"/><path class="cls-1" d="M50,44.06,54.23,48,50,51.9,45.77,48,50,44.06M50,40l-8.65,8L50,56l8.65-8L50,40Z"/><path class="cls-1" d="M50,60.08,54.23,64,50,67.92,45.77,64,50,60.08M50,56l-8.65,8L50,72l8.65-8L50,56Z"/><path class="cls-1" d="M50,76.1,54.23,80,50,83.94,45.77,80,50,76.1M50,72l-8.65,8L50,88l8.65-8L50,72Z"/><path class="cls-1" d="M50,92.11,54.23,96,50,100,45.77,96,50,92.11M50,88l-8.65,8L50,104l8.65-8L50,88Z"/><path class="cls-1" d="M67.29,28.05,71.52,32l-4.23,3.92L63.06,32l4.23-3.92m0-4.09-8.64,8,8.64,8,8.65-8-8.65-8Z"/><path class="cls-1" d="M67.29,44.06,71.52,48,67.29,51.9,63.06,48l4.23-3.92m0-4.08-8.64,8,8.64,8,8.65-8-8.65-8Z"/><path class="cls-1" d="M67.29,60.08,71.52,64l-4.23,3.92L63.06,64l4.23-3.92m0-4.09-8.64,8,8.64,8,8.65-8-8.65-8Z"/><path class="cls-1" d="M67.29,76.1,71.52,80l-4.23,3.92L63.06,80l4.23-3.92m0-4.09-8.64,8,8.64,8,8.65-8-8.65-8Z"/><path class="cls-1" d="M67.29,92.11,71.52,96,67.29,100,63.06,96l4.23-3.92m0-4.09-8.64,8,8.64,8,8.65-8-8.65-8Z"/><path class="cls-1" d="M82.93,15A2.1,2.1,0,0,1,85,17.08v93.84A2.1,2.1,0,0,1,82.93,113H17.07A2.1,2.1,0,0,1,15,110.92V17.08A2.1,2.1,0,0,1,17.07,15H82.93m0-3H17.07A5.09,5.09,0,0,0,12,17.08v93.84A5.09,5.09,0,0,0,17.07,116H82.93A5.09,5.09,0,0,0,88,110.92V17.08A5.09,5.09,0,0,0,82.93,12Z"/></svg>