<svg id="suit" xmlns="http://www.w3.org/2000/svg" viewBox="0 0 270 270"><defs><style>.cls-1{fill:#1b1b33;}</style></defs><title>suit_clover</title><path class="cls-1" d="M251.12,154.28C250,135.69,239.06,118.45,221,107c-10-6.38-20.53-9.69-31.33-9.92a61.19,61.19,0,0,0,5-36.43A60.25,60.25,0,0,0,147,11.55,60.64,60.64,0,0,0,80.19,97.08c-10.68.22-21,3.46-31,9.7-18.11,11.36-29.15,28.6-30.3,47.28a58.76,58.76,0,0,0,16.29,44.2,63.57,63.57,0,0,0,46.1,20.09,55.27,55.27,0,0,0,20.81-3.93,193.91,193.91,0,0,1-6.81,34.08,8.66,8.66,0,0,0,8.33,11.11h62.61a8.74,8.74,0,0,0,7-3.5,8.65,8.65,0,0,0,1.33-7.64,189.79,189.79,0,0,1-6.81-34.1,55.9,55.9,0,0,0,20.84,4,63.78,63.78,0,0,0,46.15-20.06A58.83,58.83,0,0,0,251.12,154.28Z"/></svg>