<svg id="suit" xmlns="http://www.w3.org/2000/svg" viewBox="0 0 270 270"><defs><style>.cls-1{fill:#ea4646;}</style></defs><title>suit_heart</title><path class="cls-1" d="M259.11,94.16c-.42-17.28-6.4-35-16-47.4C229.38,29,209,18.85,187.2,18.85c-20.81,0-39.91,12.36-52.2,33.05-12.29-20.69-31.39-33-52.2-33C61,18.85,40.62,29,26.89,46.76c-9.6,12.4-15.58,30.12-16,47.4-.38,15.46,3.47,38.19,23.93,58.65,16.7,16.7,94.41,95.46,95.2,96.25a7,7,0,0,0,10,0c.79-.79,78.51-79.55,95.2-96.25C255.64,132.35,259.49,109.63,259.11,94.16Z"/></svg>