<svg id="suit" xmlns="http://www.w3.org/2000/svg" viewBox="0 0 270 270"><defs><style>.cls-1{fill:#1b1b33;}</style></defs><title>suit_spade</title><path class="cls-1" d="M249.42,137.17C246.26,125,238.71,113,227.57,102.3L147.81,23.74l-.37-.34a19.41,19.41,0,0,0-25,0l-.34.31-81,78.6-.18.18C17,127.54,12.29,156.84,28.31,180.86,39.55,197.72,53,207,68.4,208.56c13.25,1.3,25.12-3.56,33.52-8.61a333.09,333.09,0,0,1-7,40.63,8.57,8.57,0,0,0,1.65,7.29,8.69,8.69,0,0,0,6.83,3.28h62.9a8.68,8.68,0,0,0,6.83-3.28,8.57,8.57,0,0,0,1.64-7.31A336.54,336.54,0,0,1,167.87,200c8.43,5.07,20.37,10,33.67,8.65,15.34-1.55,28.78-10.9,39.94-27.79C250.53,167.14,253.27,152,249.42,137.17Z"/></svg>